<svg width="18" height="18" fill="none" xmlns="http://www.w3.org/2000/svg"><path d="M16.5 9A7.5 7.5 0 0 1 9 16.5 7.5 7.5 0 0 1 1.5 9 7.5 7.5 0 0 1 9 1.5 7.5 7.5 0 0 1 16.5 9Z" fill="#FFDF4E"/><path d="M6.303 16a7.478 7.478 0 0 1-1.574-.834L15.137 4.687c.343.487.63 1.018.85 1.581l-9.684 9.733ZM14.045 3.45 3.478 14.076a7.523 7.523 0 0 1-1.015-1.396L12.635 2.438c.51.283.982.623 1.41 1.012Z" fill="#FFF077"/><path d="M13.243 13.243a6 6 0 0 1-8.486 0 6 6 0 0 1 0-8.486 6 6 0 0 1 8.486 0 6 6 0 0 1 0 8.486Z" fill="#FFCB05"/><path d="M4.757 13.243a6 6 0 0 0 8.486 0 6 6 0 0 0 0-8.486l-8.486 8.486Z" fill="#FCA400"/><path d="m10.192 10.15-.428.42a.116.116 0 0 0-.035.105l.098.589a.118.118 0 0 1-.168.126l-.533-.28c-.035-.021-.077-.021-.105 0l-.533.28a.118.118 0 0 1-.168-.126l.098-.589a.122.122 0 0 0-.035-.105l-.427-.42a.115.115 0 0 1 .063-.197l.595-.084a.138.138 0 0 0 .092-.063l.266-.54c.042-.084.168-.084.21 0l.267.54c.014.035.049.056.09.063l.59.084c.09.014.133.133.063.197Zm2.523-2.342-.645-.644a.26.26 0 0 0-.378.014 3.469 3.469 0 0 1-2.629 1.191A3.475 3.475 0 0 1 6.45 7.192a.26.26 0 0 0-.379-.014l-.638.637a.254.254 0 0 0-.007.358c.47.512 1.052.925 1.696 1.206v2.628c0 .372.302.673.673.673h2.559a.673.673 0 0 0 .673-.673V9.379a4.964 4.964 0 0 0 1.696-1.206.262.262 0 0 0-.007-.365Z" fill="#FFF077"/><path d="M9.077 7.178c.533 0 .96-.428.96-.96a.957.957 0 0 0-.96-.961.962.962 0 0 0-.96.96.953.953 0 0 0 .96.96Z" fill="#FFF077"/></svg>