<svg width="126" height="32" fill="none" xmlns="http://www.w3.org/2000/svg"><path fill-rule="evenodd" clip-rule="evenodd" d="M17.83 0c.526 0 1.189.654 1.189 1.17v22.635c0 .516-.663 1.17-1.189 1.17h-2.377c-.526 0-1.189-.653-1.189-1.17v-.78l-1.246 1.313c-.338.37-.99.638-1.527.638H7.132C3.308 24.976 0 21.709 0 17.95v-4.647c0-3.758 3.308-7.06 7.132-7.06h7.132V1.17c0-.517.663-1.171 1.189-1.171h2.377ZM4.755 17.951c0 1.21 1.146 2.342 2.377 2.342h7.132v-9.366H7.132c-1.23 0-2.377 1.132-2.377 2.341v4.683ZM47.547 7.415v17.95c0 3.759-3.308 6.635-7.132 6.635H36.74a1.755 1.755 0 0 1-1.392-.68l-2.092-2.721c-.347-.452-.153-1.282.423-1.282h6.736c1.23 0 2.377-.742 2.377-1.951v-.39H35.66c-3.824 0-7.132-3.267-7.132-7.025v-4.683c0-3.757 3.308-7.024 7.132-7.024h4.359c.545 0 1.14.432 1.525.78l1.248 1.171v-.78c0-.516.664-1.171 1.19-1.171h2.377c.525 0 1.188.654 1.188 1.17Zm-4.755 3.512H35.66c-1.23 0-2.377 1.132-2.377 2.341v4.683c0 1.21 1.147 2.342 2.377 2.342h7.133v-9.366Zm14.265 14.049V7.415c0-.517.662-1.171 1.188-1.171h2.378c.524 0 1.188.655 1.188 1.17v.781l1.249-1.17c.385-.349.98-.781 1.525-.781h4.358c3.825 0 7.133 3.267 7.133 7.024v4.683c0 3.758-3.308 7.025-7.133 7.025h-7.132V30.5a1.5 1.5 0 0 1-1.5 1.5h-1.754a1.5 1.5 0 0 1-1.5-1.5v-5.524Zm11.886-14.05h-7.132v9.367h7.132c1.231 0 2.378-1.132 2.378-2.342v-4.683c0-1.209-1.147-2.341-2.378-2.341Zm35.661-3.182a1.5 1.5 0 0 0-1.5-1.5h-1.755a1.5 1.5 0 0 0-1.5 1.5v9.427l-.004.13c-.078 1.161-1.19 2.211-2.373 2.211h-4.755l-.131-.004c-1.178-.077-2.246-1.168-2.246-2.337V7.743a1.5 1.5 0 0 0-1.5-1.5h-1.755a1.5 1.5 0 0 0-1.5 1.5v9.428l.003.201c.116 3.68 3.382 6.823 7.129 6.823h4.755l.204-.003c3.728-.113 6.928-3.322 6.928-7.021V7.744ZM51.114 0c-.526 0-1.19.654-1.19 1.17v2.342c0 .517.663 1.17 1.19 1.17h2.377c.525 0 1.188-.653 1.188-1.17V1.171C54.68.654 54.016 0 53.491 0h-2.378Zm-1.19 7.415c0-.517.663-1.171 1.19-1.171h2.377c.525 0 1.188.654 1.188 1.17v16.39c0 .517-.663 1.172-1.188 1.172L51.3 25c-.526 0-1.375-.679-1.375-1.195V7.415ZM22.585 0c-.525 0-1.188.654-1.188 1.17v2.342c0 .517.663 1.17 1.189 1.17h2.377c.526 0 1.189-.653 1.189-1.17V1.171C26.15.654 25.488 0 24.962 0h-2.377Zm-1.188 7.415c0-.517.663-1.171 1.189-1.171h2.377c.526 0 1.189.654 1.189 1.17v16.39c0 .517-.663 1.172-1.189 1.172h-2.377c-.526 0-1.189-.655-1.189-1.171V7.415ZM83.207 1.17v22.634c0 .516-.662 1.17-1.188 1.17H79.64c-.526 0-1.188-.654-1.188-1.17V1.17C78.453.654 79.115 0 79.64 0h2.378c.526 0 1.188.654 1.188 1.17Zm24.567 22.305a1.5 1.5 0 0 0 1.5 1.5h11.282c2.922 0 5.382-2.282 5.443-5.175.051-2.468-1.619-4.631-4.026-5.235l-9.801-2.46a.596.596 0 0 1-.444-.681c.051-.29.322-.49.618-.49h11.362a1.5 1.5 0 0 0 1.5-1.5V7.744a1.5 1.5 0 0 0-1.5-1.5h-11.283c-2.922 0-5.382 2.281-5.443 5.174-.051 2.469 1.619 4.631 4.026 5.236l9.801 2.46c.3.075.499.366.444.681-.051.289-.322.49-.618.49h-11.361a1.5 1.5 0 0 0-1.5 1.5v1.69Z" fill="#fff"/><mask id="a" mask-type="alpha" maskUnits="userSpaceOnUse" x="0" y="0" width="126" height="32"><path fill-rule="evenodd" clip-rule="evenodd" d="M17.83 0c.526 0 1.189.654 1.189 1.17v22.635c0 .516-.663 1.17-1.189 1.17h-2.377c-.526 0-1.189-.653-1.189-1.17v-.78l-1.246 1.313c-.338.37-.99.638-1.527.638H7.132C3.308 24.976 0 21.709 0 17.95v-4.647c0-3.758 3.308-7.06 7.132-7.06h7.132V1.17c0-.517.663-1.171 1.189-1.171h2.377ZM4.755 17.951c0 1.21 1.146 2.342 2.377 2.342h7.132v-9.366H7.132c-1.23 0-2.377 1.132-2.377 2.341v4.683ZM47.547 7.415v17.95c0 3.759-3.308 6.635-7.132 6.635H36.74a1.755 1.755 0 0 1-1.392-.68l-2.092-2.721c-.347-.452-.153-1.282.423-1.282h6.736c1.23 0 2.377-.742 2.377-1.951v-.39H35.66c-3.824 0-7.132-3.267-7.132-7.025v-4.683c0-3.757 3.308-7.024 7.132-7.024h4.359c.545 0 1.14.432 1.525.78l1.248 1.171v-.78c0-.516.664-1.171 1.19-1.171h2.377c.525 0 1.188.654 1.188 1.17Zm-4.755 3.512H35.66c-1.23 0-2.377 1.132-2.377 2.341v4.683c0 1.21 1.147 2.342 2.377 2.342h7.133v-9.366Zm14.265 14.049V7.415c0-.517.662-1.171 1.188-1.171h2.378c.524 0 1.188.655 1.188 1.17v.781l1.249-1.17c.385-.349.98-.781 1.525-.781h4.358c3.825 0 7.133 3.267 7.133 7.024v4.683c0 3.758-3.308 7.025-7.133 7.025h-7.132V30.5a1.5 1.5 0 0 1-1.5 1.5h-1.754a1.5 1.5 0 0 1-1.5-1.5v-5.524Zm11.886-14.05h-7.132v9.367h7.132c1.231 0 2.378-1.132 2.378-2.342v-4.683c0-1.209-1.147-2.341-2.378-2.341Zm35.661-3.182a1.5 1.5 0 0 0-1.5-1.5h-1.755a1.5 1.5 0 0 0-1.5 1.5v9.427l-.004.13c-.078 1.161-1.19 2.211-2.373 2.211h-4.755l-.131-.004c-1.178-.077-2.246-1.168-2.246-2.337V7.743a1.5 1.5 0 0 0-1.5-1.5h-1.755a1.5 1.5 0 0 0-1.5 1.5v9.428l.003.201c.116 3.68 3.382 6.823 7.129 6.823h4.755l.204-.003c3.728-.113 6.928-3.322 6.928-7.021V7.744ZM51.114 0c-.526 0-1.19.654-1.19 1.17v2.342c0 .517.663 1.17 1.19 1.17h2.377c.525 0 1.188-.653 1.188-1.17V1.171C54.68.654 54.016 0 53.491 0h-2.378Zm-1.19 7.415c0-.517.663-1.171 1.19-1.171h2.377c.525 0 1.188.654 1.188 1.17v16.39c0 .517-.663 1.172-1.188 1.172L51.3 25c-.526 0-1.375-.679-1.375-1.195V7.415ZM22.585 0c-.525 0-1.188.654-1.188 1.17v2.342c0 .517.663 1.17 1.189 1.17h2.377c.526 0 1.189-.653 1.189-1.17V1.171C26.15.654 25.488 0 24.962 0h-2.377Zm-1.188 7.415c0-.517.663-1.171 1.189-1.171h2.377c.526 0 1.189.654 1.189 1.17v16.39c0 .517-.663 1.172-1.189 1.172h-2.377c-.526 0-1.189-.655-1.189-1.171V7.415ZM83.207 1.17v22.634c0 .516-.662 1.17-1.188 1.17H79.64c-.526 0-1.188-.654-1.188-1.17V1.17C78.453.654 79.115 0 79.64 0h2.378c.526 0 1.188.654 1.188 1.17Zm24.567 22.305a1.5 1.5 0 0 0 1.5 1.5h11.282c2.922 0 5.382-2.282 5.443-5.175.051-2.468-1.619-4.631-4.026-5.235l-9.801-2.46a.596.596 0 0 1-.444-.681c.051-.29.322-.49.618-.49h11.362a1.5 1.5 0 0 0 1.5-1.5V7.744a1.5 1.5 0 0 0-1.5-1.5h-11.283c-2.922 0-5.382 2.281-5.443 5.174-.051 2.469 1.619 4.631 4.026 5.236l9.801 2.46c.3.075.499.366.444.681-.051.289-.322.49-.618.49h-11.361a1.5 1.5 0 0 0-1.5 1.5v1.69Z" fill="#fff"/></mask><g mask="url(#a)"><path fill="#fff" d="M0 0h126v32H0z"/></g></svg>