<svg xmlns="http://www.w3.org/2000/svg" width="55" height="54" fill="none" fill-rule="evenodd"><path d="M39.495 36.385a5.074 5.074 0 0 0 0-10.148v10.148z" fill="#e6123d"/><path d="M40.301 35.501V27.12c1.969.378 3.461 2.114 3.461 4.191s-1.492 3.813-3.461 4.191zm.406-24.083A15.78 15.78 0 0 0 29.481 6.75a15.78 15.78 0 0 0-11.226 4.668 16.064 16.064 0 0 0-2.83 3.817c-.473 1.294 1.055 1.61 1.426.75 2.397-4.529 7.16-7.621 12.631-7.621a14.3 14.3 0 0 1 14.281 14.281v4.626a5.865 5.865 0 0 0-4.267-1.841.807.807 0 0 0-.807.807v10.148c0 .446.361.807.807.807a5.89 5.89 0 0 0 5.879-5.791l.002-8.756a15.78 15.78 0 0 0-4.668-11.226zm3.198 24.886a.78.78 0 0 0-.55.228c-.145.145-.228.346-.228.551s.083.404.228.55a.78.78 0 0 0 .55.227.79.79 0 0 0 .55-.227.782.782 0 0 0 0-1.101.784.784 0 0 0-.55-.228zM32.252 44.02l1.145-.243.243 1.145-1.145.243-.243-1.145zm11.211-5.181a.806.806 0 0 0-1.102.295c-1.566 2.71-4.026 4.575-7.147 5.429l-.406-1.911a.81.81 0 0 0-.957-.622l-2.723.579a.806.806 0 0 0-.621.957l.579 2.723a.81.81 0 0 0 .957.622l2.723-.579c3.953-.84 7.063-3.05 8.993-6.391a.806.806 0 0 0-.295-1.102z" fill="#424750"/><path d="M11.847 37.462a2.74 2.74 0 0 1-2.739-2.739V20.361a2.74 2.74 0 0 1 2.739-2.739h19.729a2.74 2.74 0 0 1 2.739 2.739v18.053c0 .963-.78 1.743-1.743 1.743a1.74 1.74 0 0 1-1.353-.644l-1.664-2.05H11.847zm0-18.346c-.687 0-1.245.558-1.245 1.245v14.362c0 .688.557 1.245 1.245 1.245h18.419l2.112 2.602a.25.25 0 0 0 .443-.157V20.361c0-.687-.558-1.245-1.245-1.245H11.847z" fill="#19bfd3"/><path d="M26.3 26.765h5.022v1.306l-2.633 6.51h-1.622l2.556-6.342H26.3v-1.474zm-1.979-.139v1.429h-.833v1.329h-1.544v-1.329h-3.677v-1.429l2.678-5.214h1.644l-2.667 5.214h2.022v-1.854h1.544v1.854h.833zm-12.085 2.758v-1.15l2.655-2.747c.5-.525.889-1.038.889-1.563 0-.625-.422-1.016-1.011-1.016-.6 0-1.044.357-1.3.916l-1.289-.759c.5-1.117 1.511-1.652 2.567-1.652 1.333 0 2.566.893 2.566 2.456 0 .949-.544 1.764-1.278 2.501l-1.522 1.53h2.922v1.485h-5.199z" fill="#424750"/><path d="m28.002 21.687-6.937 12.894h.672l6.933-12.893h-.668z" fill="#e6123d"/></svg>