<svg xmlns="http://www.w3.org/2000/svg" width="55" height="54" fill="none"><path d="M18.377 46.384h-7.579a1.58 1.58 0 0 1-1.579-1.579V31.936a1.58 1.58 0 0 1 1.579-1.579h7.579a1.58 1.58 0 0 1 1.579 1.579v12.869a1.58 1.58 0 0 1-1.579 1.579z" fill="#e6123d"/><g fill="#424750"><path d="M14.588 42.436c-.208 0-.411.084-.558.231s-.231.351-.231.558.084.411.231.558.351.231.558.231a.8.8 0 0 0 .558-.231c.147-.146.232-.351.232-.558s-.085-.411-.232-.558-.35-.231-.558-.231zm30.353-20.462c-.208 0-.411.084-.558.231s-.231.351-.231.558.084.411.231.558.351.231.558.231.411-.084.558-.231.232-.35.232-.558a.79.79 0 0 0-.232-.558.795.795 0 0 0-.558-.231z"/><g fill-rule="evenodd"><path d="M48.063 15.863a.79.79 0 0 1 .79.79v29.731a.79.79 0 0 1-.79.789H24.23a3.98 3.98 0 0 1-2.615-.98l-.939-.819a2.373 2.373 0 0 1-2.299 1.799h-7.579a2.37 2.37 0 0 1-2.368-2.369V31.936a2.37 2.37 0 0 1 2.368-2.369h7.579c.811 0 1.528.41 1.955 1.034l2.507-2.508c.283-.283.863-.76 1.855-1.29a26.142 26.142 0 0 1 3.157-1.387v-8.763a.79.79 0 0 1 .789-.79l19.422-.001zM10.798 45.594h7.579a.79.79 0 0 0 .79-.79V31.936a.79.79 0 0 0-.79-.79h-3v9.095a.79.79 0 0 1-.79.79.79.79 0 0 1-.79-.79v-9.095h-3a.79.79 0 0 0-.79.79v12.869a.79.79 0 0 0 .79.79zm11.854-.591-1.907-1.663V32.42l2.557-2.594s1.086-.941 1.818-1.353c1.542-.869 2.729-1.211 2.729-1.211v2.122l-.765 2.035a.79.79 0 0 0 .765.594l13.256.001c.609 0 1.105.496 1.105 1.105s-.496 1.105-1.105 1.105h-7.954a.79.79 0 0 0-.789.79.79.79 0 0 0 .789.789h10.425a1.106 1.106 0 0 1 0 2.21H33.152a.79.79 0 0 0-.789.789.79.79 0 0 0 .789.79h8.736c.609 0 1.105.496 1.105 1.105s-.496 1.105-1.105 1.105h-8.736a.79.79 0 0 0-.789.79.79.79 0 0 0 .789.79h6.043c.609 0 1.105.496 1.105 1.105s-.496 1.105-1.105 1.105H24.23a2.4 2.4 0 0 1-1.577-.591zm19.226-.514c0 .394-.086.768-.239 1.105h5.634V17.778l-17.843.001v12.657h11.675a2.69 2.69 0 0 1 2.684 2.684 3.14 3.14 0 0 1-.213 1.105 2.69 2.69 0 0 1 .575.063v-8.984a.79.79 0 0 1 .789-.79.79.79 0 0 1 .79.79V35.31a2.67 2.67 0 0 1 .53 1.599 2.69 2.69 0 0 1-1.974 2.588c.182.362.285.77.285 1.201a2.69 2.69 0 0 1-2.684 2.684h-.248c.153.337.239.711.239 1.105z"/><path d="M32.056 17.55h4.388v13.162h-4.388V17.55z"/></g></g><path fill-rule="evenodd" d="M6.573 15.019c0 2.94 2.494 7.25 7.457 13.087a.843.843 0 0 0 1.285 0c4.964-5.837 7.457-10.146 7.457-13.087a8.1 8.1 0 1 0-16.2 0zm8.1-6.413a6.413 6.413 0 0 1 6.413 6.413c0 2.291-2.131 6.08-6.412 11.229-4.282-5.15-6.412-8.939-6.412-11.229a6.413 6.413 0 0 1 6.412-6.413zm-3.966 6.413a3.966 3.966 0 1 0 7.932 0 3.97 3.97 0 0 0-3.966-3.966 3.966 3.966 0 0 0-3.966 3.966zm6.413 0a2.45 2.45 0 0 1-2.447 2.447 2.45 2.45 0 0 1-2.447-2.447 2.446 2.446 0 0 1 2.447-2.447 2.45 2.45 0 0 1 2.447 2.447z" fill="#19bfd3"/></svg>