<svg xmlns="http://www.w3.org/2000/svg" width="54" height="54" fill="none"><g fill-rule="evenodd"><path d="m41.931 29.672-.023-.152c-.17-1.108-.183-1.535-.058-1.999.119-.439.34-.79 1.029-1.639.931-1.147 1.165-1.578 1.165-2.257s-.234-1.109-1.165-2.256l-.075-.092c-.609-.752-.84-1.126-.954-1.547-.086-.319-.102-.689-.052-1.188l.11-.811c.22-1.434.206-1.899-.123-2.461-.323-.553-.766-.828-2.014-1.31l-.102-.039c-1.044-.402-1.42-.601-1.756-.933s-.536-.704-.942-1.737l-.04-.101c-.487-1.236-.765-1.674-1.324-1.994-.541-.31-1.065-.331-2.383-.136l-.13.019-.787.104c-.506.05-.882.034-1.205-.052-.444-.117-.799-.337-1.657-1.019-1.159-.922-1.594-1.153-2.277-1.153-.599 0-1.113.248-1.945.891l-.332.262c-.858.682-1.213.901-1.657 1.019-.469.124-.902.111-2.021-.057-1.448-.217-1.916-.204-2.483.121-.578.331-.829.735-1.363 2.095-.406 1.033-.607 1.406-.942 1.737-.306.303-.708.525-1.521.842l-.234.091-.102.039c-1.248.482-1.69.757-2.014 1.31-.314.537-.335 1.056-.138 2.362l.019.128.105.779c.05.5.034.872-.052 1.191-.119.441-.344.795-1.075 1.696l-.217.271c-.651.825-.902 1.335-.902 1.929s.251 1.103.899 1.926l.266.33c.689.849.91 1.2 1.029 1.639.086.319.102.69.053 1.189l-.11.81c-.22 1.434-.206 1.898.123 2.461.323.553.766.828 2.014 1.31l.102.039c1.044.402 1.421.601 1.756.933s.536.704.942 1.737l.04.101c.487 1.236.765 1.674 1.324 1.994.541.31 1.065.331 2.383.136l.13-.02.789-.104.512-.028c.261 0 .487.026.69.08.444.117.799.337 1.657 1.019 1.159.922 1.593 1.153 2.277 1.153s1.118-.231 2.277-1.153l.093-.074c.759-.603 1.138-.832 1.564-.945.469-.124.901-.111 2.021.057 1.448.217 1.916.204 2.483-.121.578-.331.829-.735 1.363-2.095.406-1.033.607-1.406.942-1.737s.712-.531 1.756-.933l.102-.039c1.248-.482 1.691-.757 2.014-1.31.314-.537.336-1.057.146-2.309zm.384-6.046c0 .143-.215.482-.783 1.181-.863 1.064-1.156 1.544-1.352 2.271-.202.749-.192 1.325.022 2.723l.019.125c.107.707.12 1.107.068 1.195-.059.102-.42.292-1.145.572l-.101.039c-1.302.501-1.805.777-2.352 1.318s-.826 1.04-1.332 2.329c-.319.812-.507 1.169-.617 1.232-.099.057-.509.038-1.36-.089-1.39-.209-1.971-.218-2.726-.018-.706.187-1.23.495-2.198 1.263l-.095.075c-.707.562-1.049.775-1.195.775s-.488-.213-1.195-.776c-1.075-.855-1.56-1.144-2.293-1.338a4.39 4.39 0 0 0-1.136-.138 6.96 6.96 0 0 0-.682.036l-.931.123-.127.019c-.715.106-1.12.118-1.21.067-.103-.059-.295-.415-.578-1.133l-.039-.099c-.506-1.289-.785-1.788-1.332-2.329s-1.05-.817-2.352-1.318l-.1-.039c-.726-.28-1.086-.47-1.145-.572s-.037-.506.095-1.372l.117-.869c.07-.705.041-1.268-.103-1.802-.197-.73-.492-1.211-1.398-2.327l-.205-.255c-.355-.451-.532-.757-.532-.869s.177-.419.534-.872l.249-.309c.863-1.064 1.156-1.544 1.352-2.271.144-.535.173-1.098.103-1.804l-.124-.919-.019-.125c-.107-.707-.12-1.107-.068-1.195.059-.102.42-.292 1.145-.572l.101-.039.242-.093c1.051-.41 1.606-.726 2.11-1.225.546-.541.826-1.04 1.332-2.328.319-.812.507-1.17.617-1.232.099-.057.509-.038 1.36.089 1.389.209 1.971.218 2.725.018.737-.195 1.223-.486 2.351-1.384l.256-.201c.457-.353.767-.529.882-.529.146 0 .488.213 1.195.776 1.075.855 1.56 1.144 2.293 1.338.54.143 1.108.171 1.821.101l.929-.123.127-.019c.715-.106 1.119-.118 1.209-.067.103.059.295.415.578 1.133l.039.099c.506 1.289.785 1.787 1.332 2.329s1.05.817 2.352 1.318l.1.039c.726.28 1.086.47 1.145.572s.037.506-.095 1.372l-.117.871c-.07.704-.041 1.267.103 1.801.189.7.5 1.219 1.276 2.177l.076.094c.567.699.783 1.038.783 1.181z" fill="#424750"/><path d="M27.506 34.425c5.871 0 10.631-4.684 10.631-10.462S33.378 13.5 27.506 13.5s-10.631 4.684-10.631 10.462 4.76 10.462 10.631 10.462zm6.538-16.7a.93.93 0 0 0-1.29.203l-7.485 10.219-3.521-2.771a.93.93 0 0 0-1.298.148.91.91 0 0 0 .149 1.287l4.276 3.365a.93.93 0 0 0 1.321-.179l8.052-10.993a.91.91 0 0 0-.204-1.279z" fill="#e6123d"/></g><path d="M27.506 12.825c.385 0 .698.308.698.688s-.312.688-.698.688c-5.473 0-9.91 4.371-9.91 9.763s4.437 9.763 9.91 9.763 9.91-4.371 9.91-9.763c0-.38.312-.687.698-.687s.698.308.698.688c0 6.151-5.062 11.138-11.306 11.138S16.2 30.114 16.2 23.963s5.062-11.137 11.306-11.137z" fill="#424750"/><path d="M35.593 39.557c0-.411.343-.745.766-.745s.766.333.766.745v6.948c0 .479-.459.834-.94.725l-8.612-1.946-8.749 1.947c-.48.107-.937-.247-.937-.726v-4.632c0-.411.343-.744.766-.744s.766.333.766.744v3.698l7.984-1.777a.79.79 0 0 1 .345.001l7.844 1.773v-6.011zm-16.862-.744a.85.85 0 0 0-.597 1.441.85.85 0 0 0 1.193 0 .85.85 0 0 0-.596-1.441z" fill="#19bfd3"/><path d="M30.206 12.825a.85.85 0 0 0-.844.845c0 .221.09.439.247.596a.85.85 0 0 0 1.193 0 .85.85 0 0 0 0-1.194.85.85 0 0 0-.597-.247z" fill="#424750"/></svg>