<svg xmlns="http://www.w3.org/2000/svg" width="55" height="54" fill="none"><path fill-rule="evenodd" d="m29.949 13.5 16.11 5.035v7.884l-5.33 1.735V20.66l-16.771-5.346 5.991-1.814z" fill="#e6123d"/><g fill="#424750"><path d="m30.716 13.481 16.214 5.181c.35.112.587.437.587.804v6.841a.843.843 0 0 1-.563.796l-1.585.56a.845.845 0 0 1-.562-1.592l1.022-.361v-5.628l-18.056-5.769c-.774-.247-.785-1.339-.017-1.602l5.94-2.034a.84.84 0 0 1 .527-.006l18.9 5.964c.351.111.59.436.59.805v20.575a.842.842 0 0 1-.589.804l-18.9 5.979a.844.844 0 0 1-.512-.001l-18.664-5.979a.844.844 0 0 1-.586-.804v-2.785a.844.844 0 0 1 1.688 0v2.169l17.822 5.709 18.055-5.711V18.057l-18.045-5.694-3.265 1.118z"/><path d="M52.616 16.746a.845.845 0 0 1 .509 1.609l-18.9 5.979a.853.853 0 0 1-.51 0l-14.423-4.587a.843.843 0 1 1 .512-1.608l14.168 4.506 18.645-5.898z"/><path d="M42.392 26.819a.844.844 0 1 1 .529 1.603l-2.081.687a.843.843 0 0 1-1.108-.801v-6.225l-18.056-5.769c-.778-.249-.784-1.348-.009-1.605l7.088-2.347a.843.843 0 1 1 .53 1.602l-4.626 1.532 16.172 5.167c.35.112.587.437.587.804v5.674l.972-.321z"/><path d="M16.145 18.205v4.066a.844.844 0 0 1-1.688 0v-4.685c0-.369.239-.695.591-.805l6.704-2.105a.844.844 0 0 1 .506 1.61l-6.113 1.919z"/></g><g fill="#19bfd3"><path d="M23.272 24.131a.844.844 0 0 1 0 1.688H8.096a.844.844 0 0 1 0-1.688h15.176zm-8.438 3.713a.844.844 0 0 1 0 1.688H1.683a.844.844 0 0 1 0-1.688h13.151z"/><circle cx="5.565" cy="24.975" r=".844"/><circle cx="7.927" cy="32.4" r=".844"/><path d="M18.884 31.556a.844.844 0 0 1 0 1.688h-8.426a.844.844 0 0 1 0-1.688h8.426zm8.438-22.275a.844.844 0 0 1 0 1.688H14.171a.844.844 0 0 1 0-1.688h13.151zm-13.163 4.05a.844.844 0 0 1 0 1.688H7.758a.844.844 0 0 1 0-1.688h6.401z"/></g><path d="M34.927 43.917a.844.844 0 0 1-1.688 0v-4.173a.844.844 0 0 1 1.688 0v4.173zm0-7.564a.844.844 0 0 1-1.688 0V24.3a.844.844 0 0 1 1.688 0v12.053z" fill="#424750"/></svg>