<svg xmlns="http://www.w3.org/2000/svg" xmlns:xlink="http://www.w3.org/1999/xlink" width="55" height="54" fill="none"><g fill-rule="evenodd"><path d="m23.81 9.511 16.11 5.034v7.884l-5.33 1.735v-7.493l-16.771-5.347L23.81 9.51z" fill="#e6123d"/><path d="M47.247 13.319a.7.7 0 0 0-.218-.367.87.87 0 0 0-.159-.126.955.955 0 0 0-.101-.051C46.744 12.761 28 6.79 28 6.79a.85.85 0 0 0-.515 0L8.792 12.738a.85.85 0 0 0-.595.809V33.94a.85.85 0 0 0 .595.81l6.565 2.219c.168.053.549-1.481.549-1.481l-6.009-2.169v-19.15l5.665-1.802 15.889 5.057-3.711 1.18-14.19-4.514a.85.85 0 0 0-1.067.552.85.85 0 0 0 .552 1.067l13.855 4.407v10.099a.85.85 0 0 0 .85.85.85.85 0 0 0 .85-.85V20.116l4.815-1.529v5.637a.85.85 0 0 0 .85.85.87.87 0 0 0 .255-.04l1.982-.632a.85.85 0 0 0 .552-1.067.85.85 0 0 0-1.067-.552l-.875.279v-5.013l4.389-1.397v5.013l-.965.307a.85.85 0 0 0 .255 1.659.814.814 0 0 0 .255-.04l1.558-.495a.85.85 0 0 0 .595-.81v-6.178l4.395-1.397v18.608l-1.105.353a.85.85 0 0 0-.586 1.049.85.85 0 0 0 1.049.586l1.746-.556a.85.85 0 0 0 .595-.81V13.547a.85.85 0 0 0-.037-.228zM34.254 16.53l-15.889-5.056 3.287-1.046 15.889 5.056-3.287 1.046zm-9.8-6.994 15.888 5.057 3.287-1.046L27.74 8.491l-3.286 1.045z" fill="#424750"/></g><path d="M12.596 28.013a.79.79 0 0 0-.791.791v5.749a.79.79 0 0 0 1.583 0v-5.749a.79.79 0 0 0-.792-.791z" fill="#424750"/><use xlink:href="#a" fill="#424750"/><use xlink:href="#a" x="3.038" y="9.788" fill="#424750"/><path d="M41.335 24.796a.85.85 0 0 0-.85.85v8.858a7.66 7.66 0 0 1-7.647 7.647H22.642a.85.85 0 0 0-.85.85v1.767l-6.165-4.316 6.165-4.316v1.767a.85.85 0 0 0 .85.85h7.647a5.103 5.103 0 0 0 5.098-5.098v-.361a.85.85 0 0 0-.85-.85.85.85 0 0 0-.85.85v.361a3.4 3.4 0 0 1-3.399 3.399h-6.797v-2.549a.85.85 0 0 0-1.337-.696l-8.497 5.948a.85.85 0 0 0 0 1.392l8.497 5.948a.85.85 0 0 0 1.337-.696V43.85h9.347a9.36 9.36 0 0 0 9.347-9.347v-8.858a.85.85 0 0 0-.85-.85z" fill="#19bfd3"/><path fill-rule="evenodd" d="M14.842 20.588h8.499v2.2L18.884 33.75h-2.745l4.325-10.68h-5.622v-2.482z" fill="#e6123d"/><defs><path id="a" d="M12.595 25.65c-.208 0-.412.085-.559.232s-.232.351-.232.56a.8.8 0 0 0 .232.559.796.796 0 0 0 1.118 0 .8.8 0 0 0 .232-.559c0-.209-.085-.413-.232-.56s-.351-.232-.559-.232z"/></defs></svg>