<svg xmlns="http://www.w3.org/2000/svg" width="135" height="40" fill="none"><path d="M0 4a4 4 0 0 1 4-4h127a4 4 0 0 1 4 4v32a4 4 0 0 1-4 4H4a4 4 0 0 1-4-4V4z" fill="#fff"/><g fill="#0c0c0c"><path d="M106.23 15.155a.83.83 0 0 0-.239.594c0 .232.081.432.239.602a.78.78 0 0 0 .59.254.76.76 0 0 0 .577-.254.85.85 0 0 0 .239-.602c0-.232-.08-.43-.239-.594a.77.77 0 0 0-.577-.246.79.79 0 0 0-.59.246z"/><path fill-rule="evenodd" d="M104.135 22.577h-.095a3.71 3.71 0 0 1-.78-.08 1.526 1.526 0 0 1-.668-.326c-.272.271-.614.406-1.026.406h-5.649c-.514 0-.898-.155-1.151-.464s-.379-.749-.379-1.319v-1.667h1.068v1.493c0 .309.062.524.19.645s.329.181.61.181h5.087c.29 0 .478-.068.562-.203s.126-.342.126-.623v-1.493h1.096v1.551c0 .3.096.502.29.609s.399.159.625.159h3.034c.338 0 .555-.07.654-.21s.143-.307.133-.5l-1.377-.044c-.478-.019-.824-.184-1.04-.493s-.323-.706-.323-1.189c0-.261.044-.501.133-.725a1.79 1.79 0 0 1 .373-.58c.159-.164.349-.292.569-.384a1.9 1.9 0 0 1 .738-.138c.317 0 .599.069.843.203s.447.312.611.529a2.38 2.38 0 0 1 .372.739 2.86 2.86 0 0 1 .127.848v.826a3.65 3.65 0 0 1-.098.855c-.067.272-.168.51-.303.718s-.307.372-.512.493a1.42 1.42 0 0 1-.731.181h-3.108zm3.649-3.429c.051.159.077.318.077.471l-1.152-.043a1.43 1.43 0 0 1-.457-.109c-.154-.063-.232-.196-.232-.399 0-.213.059-.391.176-.536s.324-.217.624-.217c.161 0 .303.039.43.116s.234.176.323.297.159.261.211.42z"/><path d="M90.592 22.577h-1.026v-7.06h1.026v7.06zm-3.821-6.074a.82.82 0 0 0-.239.594c0 .232.079.432.239.602a.78.78 0 0 0 .59.254.764.764 0 0 0 .576-.254.85.85 0 0 0 .239-.602.82.82 0 0 0-.239-.594.774.774 0 0 0-.576-.247.79.79 0 0 0-.59.247zm-.499 7.307c-.323.28-.813.42-1.468.42h-.674l.197 1.131.871.014c.412.009.785-.063 1.116-.217a2.43 2.43 0 0 0 .844-.638 2.97 2.97 0 0 0 .534-.957 3.64 3.64 0 0 0 .19-1.189v-3.247h-1.124v3.523c0 .493-.162.88-.485 1.16zm12.582-6.307c0-.203.069-.377.205-.522s.302-.218.499-.218a.65.65 0 0 1 .497.218.73.73 0 0 1 .204.522.69.69 0 0 1-.204.5.666.666 0 0 1-.497.21.67.67 0 0 1-.499-.21.7.7 0 0 1-.205-.5zm-1.911 0a.74.74 0 0 1 .204-.522.676.676 0 0 1 .513-.218.64.64 0 0 1 .486.218.733.733 0 0 1 .203.522.69.69 0 0 1-.203.5.654.654 0 0 1-.486.21.687.687 0 0 1-.513-.21.7.7 0 0 1-.204-.5zm15.401 5.074c-.545 0-.975-.143-1.293-.428s-.479-.748-.479-1.384v-5.248h1.068v5.06c0 .366.074.604.219.71s.344.158.597.158h1.672c.177 0 .321-.02.428-.065a.58.58 0 0 0 .246-.173.55.55 0 0 0 .106-.262 2.38 2.38 0 0 0 .021-.325v-1.493h1.096v1.666c0 .541-.129.975-.387 1.298s-.653.487-1.188.487h-1.741a.93.93 0 0 1-.034 0h-.331zm1.748 1.4a.69.69 0 0 0-.204.499.74.74 0 0 0 .204.523.67.67 0 0 0 .513.216.643.643 0 0 0 .485-.216.74.74 0 0 0 .204-.523.69.69 0 0 0-.204-.499.656.656 0 0 0-.485-.211.686.686 0 0 0-.513.211zm-1.798 0a.69.69 0 0 0-.204.499.74.74 0 0 0 .204.523.653.653 0 0 0 .497.216.66.66 0 0 0 .5-.216.737.737 0 0 0 .204-.523.695.695 0 0 0-.204-.499.67.67 0 0 0-.5-.211.667.667 0 0 0-.497.211zm5.634-.168c.322-.279.485-.667.485-1.16v-3.522h1.124v3.247a3.67 3.67 0 0 1-.189 1.188 2.97 2.97 0 0 1-.534.957 2.37 2.37 0 0 1-.845.631c-.331.15-.703.225-1.116.225l-.477-.015-.183-1.13h.267c.656 0 1.145-.141 1.468-.422zm3.015-2.348.139 1.116h3.332c.523 0 .92-.14 1.186-.422s.4-.613.4-.999a1.74 1.74 0 0 0-.133-.652 2.02 2.02 0 0 0-.401-.623l-2.389-2.624-.715.754 2.403 2.624c.12.135.182.275.182.42 0 .106-.042.201-.127.283s-.21.123-.38.123h-3.497z"/></g><path fill-rule="evenodd" d="M27.815 13.879c2.185.165 6.681.79 7.185 1.975-.247 2.599-1.133 8.446-2.704 11.042C30.333 30.143 27.111 33 22 33s-8.333-2.858-10.296-6.103C10.133 24.3 9.247 18.454 9 15.855c.504-1.185 5-1.811 7.185-1.975.21-.588.904-2.272 2-4.304S20.704 7 22 7s2.718.543 3.815 2.575 1.79 3.716 2 4.304zM22 9.223c.778 0 1.63 1.058 1.963 1.658.267.48.963 2.058 1.259 2.787h-6.444c.296-.729.993-2.307 1.259-2.787.333-.6 1.185-1.658 1.963-1.658z" fill="url(#a)"/><g fill="#000"><path d="M54.049 21.025a2.19 2.19 0 0 0 2.188 2.188c1.211 0 2.191-.98 2.188-2.188V10.188A2.19 2.19 0 0 0 56.238 8a2.19 2.19 0 0 0-2.188 2.188v10.837zm17.434.04h4.35c1.197 0 2.17.97 2.167 2.17a2.17 2.17 0 0 1-2.17 2.169h-5.44a3.27 3.27 0 0 1-3.268-3.268V12.35a2.18 2.18 0 1 1 4.36 0v8.716zM47.53 14.493a2.18 2.18 0 0 1 2.18-2.18c1.203 0 2.18.975 2.178 2.18v7.644a3.27 3.27 0 0 1-3.268 3.268h-5.45a2.17 2.17 0 1 1-.001-4.34h4.361v-6.573zm15.243 2.161a2.18 2.18 0 0 0-2.18 2.18v6.573h-4.36a2.17 2.17 0 0 0-2.169 2.169 2.17 2.17 0 0 0 2.169 2.17h5.451a3.27 3.27 0 0 0 3.268-3.268v-7.644a2.18 2.18 0 0 0-2.178-2.18zM62.773 14.53a2.21 2.21 0 0 0 2.207-2.207 2.21 2.21 0 0 0-2.207-2.207 2.21 2.21 0 0 0-2.207 2.207 2.21 2.21 0 0 0 2.207 2.207zm8.767 15.198a2.21 2.21 0 0 1-2.207 2.207 2.21 2.21 0 0 1-2.207-2.207 2.21 2.21 0 0 1 2.207-2.207 2.21 2.21 0 0 1 2.207 2.207z"/></g><path d="M4 1h127v-2H4v2zm130 3v32h2V4h-2zm-3 35H4v2h127v-2zM1 36V4h-2v32h2zm3 3a3 3 0 0 1-3-3h-2a5 5 0 0 0 5 5v-2zm130-3a3 3 0 0 1-3 3v2a5 5 0 0 0 5-5h-2zm-3-35a3 3 0 0 1 3 3h2a5 5 0 0 0-5-5v2zM4-1a5 5 0 0 0-5 5h2a3 3 0 0 1 3-3v-2z" fill="#e0e0e0"/><defs><linearGradient id="a" x1="22" y1="7" x2="22" y2="33" gradientUnits="userSpaceOnUse"><stop stop-color="#8fc345"/><stop offset="1" stop-color="#118f4e"/></linearGradient></defs></svg>