<svg xmlns="http://www.w3.org/2000/svg" width="136" height="36" fill="none"><path fill-rule="evenodd" d="M112.005 13a.96.96 0 0 0-1 1v7c0 1.363-.637 2-2 2h-8.998v-7.5c0-4.235-3.264-7.5-7.499-7.5H86.01c-.605 0-1.635.017-2 .5l-2 3c-.385.509-.138 1.5.5 1.5h9.998c1.363 0 2.5 1.137 2.5 2.5V23H74.012a.96.96 0 0 0-1 1v3a.96.96 0 0 0 1 1h3.999c0 1.363-1.637 3-2.999 3h-8.998c-1.363 0-2-.637-2-2V19a.96.96 0 0 0-1-1h-2.999a.96.96 0 0 0-1 1v10c0 4.5 2.499 7 6.999 7h8.998c4.234 0 7.998-3.765 7.998-8h15.997c.581 0 1-.419 1-1v-1l1.091 1.389c.365.483.803.611 1.408.611h6.499c4.235 0 6.999-2.765 6.999-7v-7a.96.96 0 0 0-1-1h-2.999zm-6.999 18a.96.96 0 0 0-1 1v3a.96.96 0 0 0 1 1h7.998a.96.96 0 0 0 1-1v-3a.96.96 0 0 0-1-1h-7.998zm-17.997 0a.96.96 0 0 0-1 1v3a.96.96 0 0 0 1 1h3.499a.96.96 0 0 0 1-1v-3a.96.96 0 0 0-1-1h-3.499zm32.994-23a.96.96 0 0 0-1 1v3a.96.96 0 0 0 1 1h8.998c1.363 0 2 .637 2 2v6c0 1.363-.637 2-2 2h-8.998a.96.96 0 0 0-1 1v3a.96.96 0 0 0 1 1h8.998c4.235 0 6.999-2.765 6.999-7v-6c0-4.235-2.764-7-6.999-7h-8.998zM42.518 8l5.049-6.505A.913.913 0 0 0 46.863 0h-3.841c-.612 0-1.192.273-1.582.745L33.02 11.5c-.573.694-.4 1.5.5 1.5h11.498c2.861 0 4.999 2.138 4.999 5v5H30.02c-1.282 0-2-.655-2-2V5a.96.96 0 0 0-1-1h-2.999a.96.96 0 0 0-1 1v16c0 4.5 3.499 7 7.998 7h22.996c.581 0 1-.419 1-1v-9c0-5.734-4.265-10-9.998-10h-2.5zM16.023 4a.96.96 0 0 0-1 1v16c0 1.363-.637 2-2 2H2.026a.96.96 0 0 0-1 1v3a.96.96 0 0 0 1 1h10.998c4.499 0 6.999-2.5 6.999-7V5a.96.96 0 0 0-1-1h-2.999zM3.843 18.729.026 5c-.157-.557.421-1 1-1h2.658c.531 0 1.112.231 1.257.742l4.101 13.891c.156.553-.198.978-.773.978h-3.26a1.21 1.21 0 0 1-1.166-.882z" fill="#ef394e"/></svg>