<svg xmlns="http://www.w3.org/2000/svg" width="154" height="42" fill="none"><path fill-rule="evenodd" d="M50.392 9.114c.247 0 .592.143.766.316l2.58 2.576.017.022v-1.831c0-.598.486-1.083 1.085-1.083h3.616a1.22 1.22 0 0 1 1.154.821.84.84 0 0 1 .017.182v22.43c0 3.796-2.346 7.029-5.699 8.242a8.621 8.621 0 0 1-2.945.511h-4.932a1.72 1.72 0 0 1-1.226-.511l-2.32-2.362c-1.072-1.081-.297-2.916 1.226-2.916h7.233a2.815 2.815 0 0 0 2.474-1.465 2.77 2.77 0 0 0 .316-1.335v-.141H44.23a8.18 8.18 0 0 1-1.597-.156c-3.729-.899-6.498-4.253-6.498-8.249v-6.567c0-4.687 3.804-8.484 8.498-8.484h5.758zM99.967.336a1.09 1.09 0 0 1 1.085 1.083v29.962c0 .664-.544 1.208-1.21 1.208h-3.464a1.21 1.21 0 0 1-1.209-1.208V1.543A1.21 1.21 0 0 1 96.378.336h3.589zM135.19.335c.6 0 1.085.485 1.085 1.083v7.713h9.525c.547 0 1.081.054 1.598.156 3.728.899 6.497 4.253 6.497 8.249v6.565c0 4.687-3.807 8.487-8.501 8.487h-5.705c-.232 0-.456-.074-.64-.21a.924.924 0 0 1-.128-.106l-.002-.002-2.646-2.653v1.888a1.09 1.09 0 0 1-1.085 1.083h-3.615a1.22 1.22 0 0 1-1.155-.821.833.833 0 0 1-.017-.182V1.418c0-.598.486-1.083 1.085-1.083h3.704zm-26.421 8.804a1.084 1.084 0 0 1 1.091 1.083v13.989a2.514 2.514 0 0 0 2.515 2.512h9.229l-.005-16.49c0-.598.486-1.084 1.085-1.084h3.707c.6 0 1.085.485 1.085 1.084l.003 21.353c0 .063-.633 1.003-1.171 1.003h-3.616a1.09 1.09 0 0 1-1.085-1.084v-1.887l-2.645 2.653a.92.92 0 0 1-.131.108c-.184.136-.408.21-.64.21h-5.705c-4.695 0-8.501-3.8-8.501-8.487v-13.86c0-.597.483-1.08 1.08-1.083l3.704-.019zM87.48 9.062c.349-.01.69.124.935.368l3.444 3.439c.773.771.262 2.125-.825 2.125h-7.372l-2.285.001H79.47a2.514 2.514 0 0 0-2.516 2.511v6.706a2.512 2.512 0 0 0 2.513 2.511l11.678-.002c.599 0 1.085.485 1.085 1.083v3.698c0 .598-.486 1.083-1.085 1.083h-11.97a8.25 8.25 0 0 1-1.598-.156c-3.728-.899-6.497-4.253-6.497-8.249v-6.565a8.5 8.5 0 0 1 6.185-8.171 8.67 8.67 0 0 1 1.695-.294 8.28 8.28 0 0 1 .621-.022H79.874l7.605-.068zM23.304.3c.599 0 1.085.486 1.085 1.083V31.55a.84.84 0 0 1-.017.182 1.22 1.22 0 0 1-1.155.821h-3.616a1.09 1.09 0 0 1-1.085-1.083v-1.887l-2.645 2.652a.9.9 0 0 1-.13.108c-.184.136-.408.21-.64.21H9.395c-4.694 0-8.5-3.801-8.5-8.487v-6.565c0-3.995 2.769-7.35 6.497-8.249a8.237 8.237 0 0 1 1.597-.156h9.525V1.383C18.514.785 19 .3 19.599.3h3.705zm8.811 8.797c.599 0 1.085.485 1.085 1.083v21.29c0 .598-.486 1.083-1.085 1.083H28.41a1.084 1.084 0 0 1-1.085-1.083V10.181c0-.598.486-1.083 1.085-1.083h3.704zm35.24 0c.599 0 1.085.485 1.085 1.083v21.29c0 .598-.486 1.083-1.085 1.083H63.65a1.084 1.084 0 0 1-1.085-1.083V10.181c0-.598.486-1.083 1.085-1.083h3.704zm78.153 5.897h-9.232v11.728h9.23a2.513 2.513 0 0 0 2.515-2.512v-6.706a2.512 2.512 0 0 0-2.513-2.511zm-91.752-.033h-9.231a2.514 2.514 0 0 0-2.515 2.512v6.706a2.512 2.512 0 0 0 2.513 2.511h9.233V14.962zm-35.241-.002H9.283a2.513 2.513 0 0 0-2.514 2.511v6.706a2.513 2.513 0 0 0 2.516 2.511h9.23V14.96zM67.354.335c.599 0 1.085.485 1.085 1.083v3.698c0 .598-.486 1.083-1.085 1.083H63.65a1.084 1.084 0 0 1-1.085-1.083V1.419c0-.598.486-1.083 1.085-1.083h3.704zM32.114.301c.599 0 1.085.485 1.085 1.083v3.698c0 .598-.486 1.083-1.085 1.083H28.41a1.084 1.084 0 0 1-1.085-1.083V1.384c0-.598.486-1.083 1.085-1.083h3.704z" fill="#fff"/></svg>