<svg xmlns="http://www.w3.org/2000/svg" xmlns:xlink="http://www.w3.org/1999/xlink" width="151" height="44" fill="none"><rect x="1" y=".5" width="149" height="43" rx="3.5" fill="#fff" stroke="#e0e0e0"/><g fill-rule="evenodd"><use xlink:href="#a" fill="url(#b)"/><use xlink:href="#a" fill="url(#c)"/><use xlink:href="#d" fill="#ffd200"/><use xlink:href="#d" fill="url(#e)"/><path d="M17.963 34.323c.24.255.563.393.938.398h.042c.333-.005.705-.113 1.098-.336l14.609-8.3-4.224-4.224-12.463 12.462z" fill="url(#f)"/><use xlink:href="#g" fill="#00f076"/><use xlink:href="#g" fill="url(#h)"/><path d="M113.395 32.234h1.865V19.733h-1.865v12.501zm16.806-7.998-2.138 5.42h-.065l-2.219-5.42h-2.01l3.329 7.575-1.898 4.214h1.946l5.131-11.789h-2.076zm-10.583 6.578c-.61 0-1.462-.306-1.462-1.062 0-.964 1.061-1.335 1.978-1.335.819 0 1.206.178 1.704.418a2.26 2.26 0 0 1-2.22 1.979zm.226-6.852c-1.351 0-2.75.596-3.329 1.914l1.656.692c.355-.692 1.014-.917 1.705-.917.965 0 1.947.579 1.962 1.608v.129c-.338-.193-1.061-.482-1.946-.482-1.785 0-3.603.981-3.603 2.814 0 1.673 1.464 2.751 3.105 2.751 1.254 0 1.946-.563 2.38-1.223h.064v.965h1.802V27.42c0-2.219-1.657-3.458-3.796-3.458zm-11.531 1.796h-2.655v-4.285h2.655c1.394 0 2.186 1.154 2.186 2.142 0 .969-.792 2.143-2.186 2.143zm-.049-6.026h-4.471v12.502h1.865v-4.736h2.606c2.068 0 4.102-1.497 4.102-3.883s-2.034-3.883-4.102-3.883zM83.883 30.816c-1.289 0-2.368-1.079-2.368-2.561 0-1.499 1.079-2.594 2.368-2.594 1.273 0 2.272 1.095 2.272 2.594 0 1.482-.999 2.561-2.272 2.561zm2.143-5.88h-.065c-.419-.499-1.224-.951-2.239-.951-2.127 0-4.076 1.87-4.076 4.27 0 2.384 1.949 4.237 4.076 4.237 1.015 0 1.82-.451 2.239-.967h.065v.612c0 1.628-.87 2.497-2.272 2.497-1.143 0-1.852-.821-2.142-1.514l-1.627.677c.466 1.127 1.707 2.513 3.769 2.513 2.192 0 4.044-1.289 4.044-4.431v-7.636h-1.772v.693zm3.061 7.298h1.868V19.733h-1.868v12.501zm4.623-4.124c-.048-1.644 1.274-2.481 2.224-2.481.741 0 1.369.371 1.579.902L93.71 28.11zm5.8-1.418c-.354-.95-1.434-2.707-3.641-2.707-2.191 0-4.011 1.724-4.011 4.254 0 2.384 1.804 4.253 4.22 4.253 1.95 0 3.078-1.192 3.545-1.885l-1.45-.967c-.483.709-1.143 1.176-2.095 1.176s-1.627-.435-2.061-1.289l5.686-2.352-.193-.483zm-45.308-1.401v1.804h4.318c-.129 1.015-.467 1.756-.983 2.271-.629.629-1.611 1.322-3.335 1.322-2.658 0-4.736-2.143-4.736-4.801s2.078-4.802 4.736-4.802c1.434 0 2.481.564 3.254 1.29l1.273-1.273a6.29 6.29 0 0 0-4.527-1.821c-3.641 0-6.702 2.965-6.702 6.606s3.061 6.605 6.702 6.605c1.965 0 3.448-.645 4.607-1.853 1.193-1.192 1.563-2.867 1.563-4.221 0-.418-.032-.805-.096-1.127h-6.074zm11.079 5.525c-1.289 0-2.401-1.063-2.401-2.577 0-1.531 1.112-2.578 2.401-2.578s2.4 1.047 2.4 2.578c0 1.514-1.111 2.577-2.4 2.577zm0-6.831c-2.352 0-4.269 1.789-4.269 4.254 0 2.449 1.917 4.253 4.269 4.253s4.269-1.804 4.269-4.253c0-2.465-1.917-4.254-4.269-4.254zm9.313 6.831c-1.289 0-2.4-1.063-2.4-2.577 0-1.531 1.111-2.578 2.4-2.578s2.4 1.047 2.4 2.578c0 1.514-1.111 2.577-2.4 2.577zm0-6.831c-2.352 0-4.269 1.789-4.269 4.254 0 2.449 1.917 4.253 4.269 4.253s4.27-1.804 4.27-4.253c0-2.465-1.917-4.254-4.27-4.254zm29.487-15.09h-1.023V15h1.023V8.895zM121.087 15h-.429c-.191 0-.37-.026-.539-.077a1.1 1.1 0 0 1-.445-.258 1.3 1.3 0 0 1-.308-.473 1.997 1.997 0 0 1-.116-.731V8.895h1.023v4.323c0 .213.048.38.143.501s.246.181.451.181h.22c-.029 0-.055.031-.077.093s-.033.222-.033.479l.001.11c.003.171.014.281.032.33.022.059.048.088.077.088zm0 0h2.376c.513 0 .909-.141 1.188-.424s.418-.698.418-1.248v-1.254h-1.012v1.177c0 .433-.224.649-.671.649h-2.299V15zm10.67-2.497c.183.205.317.411.402.616s.126.403.126.594a1.22 1.22 0 0 1-.385.913c-.257.249-.634.374-1.133.374h-2.662l-.055-1.1h2.552c.33 0 .495-.125.495-.374a.47.47 0 0 0-.113-.292l-1.768-2.007.803-.748 1.738 2.024zm-7.194 3.817h.132a1.82 1.82 0 0 0 .715-.127c.198-.084.361-.194.49-.33s.221-.293.28-.473a1.77 1.77 0 0 0 .088-.555v-2.761h1.012v2.761a2.72 2.72 0 0 1-.187 1.012 2.606 2.606 0 0 1-.506.819 2.36 2.36 0 0 1-.764.55 2.26 2.26 0 0 1-.952.204h-.253l-.055-1.1zm-.77.792h-1.023v-.979h1.023v.979zm-2.475 0h1.034v-.979h-1.034v.979zm-7.535-2.64.001.11c.003.171.014.281.032.33.022.059.048.088.077.088h-.242a1.9 1.9 0 0 1-.682-.121c-.213-.081-.396-.249-.55-.506-.161.257-.339.425-.533.506a1.61 1.61 0 0 1-.622.121h-3.366c-.279 0-.515-.042-.709-.127s-.352-.196-.473-.335a1.36 1.36 0 0 1-.27-.489 1.942 1.942 0 0 1-.088-.588v-1.43h1.012v1.166c0 .22.05.392.149.517s.298.187.599.187h3.146c.447 0 .671-.216.671-.649v-1.177h1.023v1.177c0 .235.073.402.22.501s.319.149.517.149h.198c-.029 0-.055.031-.077.093s-.033.222-.033.479zm2.365.528h-2.255v-1.1h.902l.286.005.117.007.109.01.203.027a2.02 2.02 0 0 1 .22.05 2.74 2.74 0 0 1-.561-.314 1.19 1.19 0 0 1-.319-.352 1.185 1.185 0 0 1-.143-.418 3.47 3.47 0 0 1-.033-.501 1.62 1.62 0 0 1 .105-.561 1.56 1.56 0 0 1 .313-.517 1.66 1.66 0 0 1 .517-.38c.205-.099.447-.149.726-.149.257 0 .491.033.704.099s.396.176.55.33a1.54 1.54 0 0 1 .358.611c.084.253.126.563.126.93v.506c0 .535-.154.955-.462 1.259s-.796.457-1.463.457zm.165-3.091c-.242 0-.42.075-.533.225s-.171.31-.171.479a1.02 1.02 0 0 0 .033.258.59.59 0 0 0 .165.259 1.89 1.89 0 0 0 .396.281 6.88 6.88 0 0 0 .715.335c.059-.066.103-.156.132-.27s.044-.229.044-.346v-.264c0-.279-.055-.508-.165-.687s-.315-.269-.616-.269zm-.539-1.925h1.122V8.972h-1.122v1.012zm-5.929 1.276h1.045v-.979h-1.045v.979zm-.385 0h-1.045v-.979h1.045v.979zm-7.414 3.575a2.72 2.72 0 0 1-.187 1.012 2.606 2.606 0 0 1-.506.819 2.36 2.36 0 0 1-.764.55 2.26 2.26 0 0 1-.952.204h-.627l-.055-1.1h.429c.293 0 .544-.042.754-.127a1.46 1.46 0 0 0 .511-.33c.132-.136.229-.293.292-.473a1.69 1.69 0 0 0 .093-.555v-2.761h1.012v2.761zm-1.111-3.927h1.122V9.896h-1.122v1.012z" fill="#000"/></g><defs><linearGradient id="b" x1="17.5" y1="9.325" x2="17.5" y2="34.396" xlink:href="#i"><stop stop-color="#fff"/><stop offset="1"/></linearGradient><linearGradient id="c" x1="16.9" y1="4.767" x2="2.474" y2="21.227" xlink:href="#i"><stop stop-color="#00c3ff"/><stop offset="1" stop-color="#06e1ff"/></linearGradient><linearGradient id="e" x1="30.426" y1="26.138" x2="40.591" y2="26.138" xlink:href="#i"><stop stop-color="#febd00"/><stop offset="1" stop-color="#ffdb00"/></linearGradient><linearGradient id="f" x1="17.589" y1="15.386" x2="1.663" y2="42.202" xlink:href="#i"><stop stop-color="#ff3a44"/><stop offset="1" stop-color="#c31162"/></linearGradient><linearGradient id="h" x1="11.672" y1="14.2" x2="19.374" y2="28.09" xlink:href="#i"><stop stop-color="#04e975"/><stop offset="1" stop-color="#00f076"/></linearGradient><linearGradient id="i" gradientUnits="userSpaceOnUse"/><path id="a" d="M17.963 9.398c-.291.307-.463.785-.463 1.405v22.115c0 .62.172 1.097.463 1.405l.073.073 12.39-12.389v-.293L18.036 9.325l-.073.073z"/><path id="d" d="M30.426 21.714v.293l4.129 4.131.095-.052 4.892-2.782c1.398-.793 1.398-2.093 0-2.887l-4.892-2.78-.094-.053-4.13 4.13z"/><path id="g" d="m17.963 9.398 12.463 12.463 4.224-4.225-14.609-8.3C19.639 9.108 19.258 9 18.92 9c-.383 0-.713.139-.957.398z"/></defs></svg>