<svg xmlns="http://www.w3.org/2000/svg" width="135" height="40" fill="none"><style>.B{fill-rule:evenodd}</style><path d="M0 4a4 4 0 0 1 4-4h127a4 4 0 0 1 4 4v32a4 4 0 0 1-4 4H4a4 4 0 0 1-4-4V4z" fill="#fff"/><g fill="#000"><path d="m23.81 8.5-.59.6.59.6.6-.6-.6-.6zm.25 4.89a2.66 2.66 0 0 0 .16-.82V10.5h-.81v2c0 .192-.023.384-.07.57a.91.91 0 0 1-.22.37.83.83 0 0 1-.38.21 2.12 2.12 0 0 1-.54.06h-.41v.82h.41a2.41 2.41 0 0 0 .83-.14 1.72 1.72 0 0 0 .62-.39 1.87 1.87 0 0 0 .41-.61z" class="B"/><path d="M25.93 12.77h-.82V8.06h.82v4.71z"/><path d="M29.36 7.44a.5.5 0 0 0-.5.5.45.45 0 0 0 .16.32.56.56 0 0 0 .72 0 .45.45 0 0 0 .12-.32.5.5 0 0 0-.5-.5zm-.45 5.28h.85v-3.8h-.85v3.8zm5.6-1.1a3.2 3.2 0 0 0 .26-1.32V10a3.05 3.05 0 0 0-.27-1.34 2 2 0 0 0-.74-.86 2.2 2.2 0 0 0-2.22 0 2.09 2.09 0 0 0-.75.88 3.2 3.2 0 0 0-.26 1.32v.33a3 3 0 0 0 .27 1.3 1.91 1.91 0 0 0 .75.86 2.2 2.2 0 0 0 2.22 0 1.93 1.93 0 0 0 .74-.87zm-.95-2.92a2.27 2.27 0 0 1 .32 1.3v.29a2.26 2.26 0 0 1-.32 1.31 1 1 0 0 1-.9.45 1.06 1.06 0 0 1-.92-.46 2.26 2.26 0 0 1-.33-1.3V10a2.22 2.22 0 0 1 .34-1.3 1 1 0 0 1 .9-.45 1.05 1.05 0 0 1 .91.45z" class="B"/><path d="M38.24 11.41a.61.61 0 0 0-.24-.52 2.56 2.56 0 0 0-.85-.37 4.21 4.21 0 0 1-1-.42 1.3 1.3 0 0 1-.7-1.14 1.24 1.24 0 0 1 .5-1 2 2 0 0 1 1.31-.4 2.1 2.1 0 0 1 .95.2 1.58 1.58 0 0 1 .66.56 1.49 1.49 0 0 1 .23.8h-.88a.82.82 0 0 0-.25-.63 1.05 1.05 0 0 0-.72-.22 1.09 1.09 0 0 0-.67.18.63.63 0 0 0-.24.52.54.54 0 0 0 .26.47 2.9 2.9 0 0 0 .85.37 4 4 0 0 1 1 .4 1.55 1.55 0 0 1 .53.52 1.41 1.41 0 0 1 .17.69 1.21 1.21 0 0 1-.49 1 2.14 2.14 0 0 1-1.33.37 2.61 2.61 0 0 1-1-.2 1.83 1.83 0 0 1-.73-.57 1.41 1.41 0 0 1-.25-.84h.89a.82.82 0 0 0 .28.67 1.28 1.28 0 0 0 .83.24 1.08 1.08 0 0 0 .7-.19.61.61 0 0 0 .19-.49z"/><g class="B"><path d="M45.23 12.77h.09v-.85H44.98a.71.71 0 0 1-.28-.09.82.82 0 0 1-.26-.2.73.73 0 0 1-.17-.34l-.6-2.32-.79.19.07.31a6.14 6.14 0 0 0-.59.25 2.46 2.46 0 0 0-.52.34 1.8 1.8 0 0 0-.35.47 1.38 1.38 0 0 0-.14.62 1.35 1.35 0 0 0 .11.55 1.2 1.2 0 0 0 .28.41 1.15 1.15 0 0 0 .41.26 1.33 1.33 0 0 0 .49.09h.3a1.4 1.4 0 0 0 .29-.09 1.2 1.2 0 0 0 .27-.16.8.8 0 0 0 .2-.21 1.3 1.3 0 0 0 .25.37 1.45 1.45 0 0 0 .36.25 2 2 0 0 0 .43.15 2.64 2.64 0 0 0 .49 0zm-1.91-1.81a.59.59 0 0 1 0 .19h-.01a.53.53 0 0 1-.19.34 1 1 0 0 1-.41.14.5.5 0 0 1-.21 0 .56.56 0 0 1-.19-.09.36.36 0 0 1-.14-.16.37.37 0 0 1-.06-.21.63.63 0 0 1 .27-.52 2.64 2.64 0 0 1 .79-.38c.041.052.043.101.044.147s.002.084.036.123c.07.08.07.16.07.23a1.23 1.23 0 0 1 0 .19z"/><path d="m46.67 8.01-.58.59.59.6.6-.59-.61-.6zm2.84 3.53.11-.07-.11-.67h-.15l-.29-.11-.39-.14-.44-.16-.46-.16-.43-.13L47 10l-.26-.09a.94.94 0 0 0-.39.07.93.93 0 0 0-.3.2c-.087.089-.161.19-.22.3a2.47 2.47 0 0 0-.15.37l.75.23a.48.48 0 0 1 .08-.16.44.44 0 0 1 .08-.11.24.24 0 0 1 .11-.06h.13a.72.72 0 0 1 .19 0l.29.06.33.09.36.1.39.18.33.1a5.09 5.09 0 0 1-.56.25 4.308 4.308 0 0 1-.67.23 5.65 5.65 0 0 1-.71.17 3.44 3.44 0 0 1-.69.07h-1v.74h1c.225 0 .449-.02.67-.06l.65-.15c.207-.063.411-.136.61-.22l.54-.24a1.22 1.22 0 0 0 .48.5 1.48 1.48 0 0 0 .7.17h.6v-.81h-.83l-.14-.08a.56.56 0 0 1-.1-.15l.24-.16z"/></g><path d="M51.58 12a.13.13 0 0 1 .1 0 .117.117 0 0 1 0 .09v.56a.11.11 0 0 1 0 .1.13.13 0 0 1-.1 0h-1.36a.11.11 0 0 1-.13-.13v-.56a.153.153 0 0 1 0-.09.13.13 0 0 1 .1 0l1.39.03z"/><path d="M52.94 12a.17.17 0 0 1 .1 0 .16.16 0 0 1 0 .09v.56a.13.13 0 0 1 0 .1.17.17 0 0 1-.1 0h-1.37a.11.11 0 0 1-.13-.13v-.56a.153.153 0 0 1 0-.09.13.13 0 0 1 .1 0l1.4.03z"/><path d="M52.83 12h.42c.103.012.207.012.31 0a.67.67 0 0 0 .19-.1.42.42 0 0 0 .09-.16 1.335 1.335 0 0 0 0-.2v-1h.81v.94a.51.51 0 0 0 .13.38.59.59 0 0 0 .41.13h.12a.31.31 0 0 0 .14-.07.37.37 0 0 0 .11-.15.58.58 0 0 0 .05-.25v-1h.81v.94a.5.5 0 0 0 .13.39.57.57 0 0 0 .45.15.41.41 0 0 0 .16 0 .29.29 0 0 0 .14-.08.56.56 0 0 0 .1-.15.65.65 0 0 0 0-.22v-1h.81v1a.47.47 0 0 0 .15.37.78.78 0 0 0 .45.11h.32v.81h-.32a2 2 0 0 1-.58-.07 1.07 1.07 0 0 1-.43-.24 1.09 1.09 0 0 1-.39.23 1.21 1.21 0 0 1-.46.08 1.699 1.699 0 0 1-.53-.07 1.06 1.06 0 0 1-.41-.24 1.48 1.48 0 0 1-.38.23 1.31 1.31 0 0 1-.43.08 1.46 1.46 0 0 1-.54-.08 1.34 1.34 0 0 1-.41-.22 1.59 1.59 0 0 1-1 .3h-.42V12z"/><path d="m60.07 8.09-.59.59.59.6.6-.59-.6-.6zm.8 2.01V10l-.64.31a1.09 1.09 0 0 1 0 .14c.05.06.05.13.05.2v.69a1.2 1.2 0 0 1 0 .18.68.68 0 0 1 0 .27.64.64 0 0 1-.13.15.47.47 0 0 1-.15.06h-1v.74h.67a1.16 1.16 0 0 0 .45-.08 1.27 1.27 0 0 0 .41-.23 1.38 1.38 0 0 0 .29-.41 1.5 1.5 0 0 0 .11-.58v-.55l-.06-.31a1.87 1.87 0 0 0 0-.27v-.21zm5.05.14-.55-.55.54-.57.56.57-.55.55zm3.89.27v1a.59.59 0 0 0 0 .2.38.38 0 0 0 .09.13.25.25 0 0 0 .12.08.31.31 0 0 0 .12.05h.39v.81h-.44l-.26-.05-.24-.09a.8.8 0 0 1-.21-.15 1.46 1.46 0 0 1-1 .3h-3.7a1.44 1.44 0 0 1-.46-.08 1 1 0 0 1-.38-.24 1.03 1.03 0 0 1-.13-.15 1.15 1.15 0 0 1-.22-.48 1.21 1.21 0 0 1 0-.34 1.55 1.55 0 0 1 0-.36c0-.12 0-.24.07-.36.034-.058.035-.108.036-.155s.002-.094.044-.135c.061-.061.029-.11.01-.139-.006-.009-.01-.016-.01-.021l.39.13.39.12c0 .06 0 .13-.07.21l-.06.25v.26a1.67 1.67 0 0 0 0 .2.633.633 0 0 0 0 .26.31.31 0 0 0 .11.14.24.24 0 0 0 .13.07H68.41a1 1 0 0 0 .31 0 .35.35 0 0 0 .19-.1.33.33 0 0 0 .07-.24v-1.12h.83zm-3.07-.83.55.56.56-.56-.57-.56-.54.56z" class="B"/><path d="M71.86 12a.13.13 0 0 1 .1 0 .12.12 0 0 1 0 .09v.56a.11.11 0 0 1 0 .1.13.13 0 0 1-.1 0H70.5a.11.11 0 0 1-.13-.13v-.56a.16.16 0 0 1 0-.09.13.13 0 0 1 .1 0l1.39.03z"/><path d="M73.22 12a.17.17 0 0 1 .1 0 .16.16 0 0 1 0 .09v.56a.13.13 0 0 1 0 .1.17.17 0 0 1-.1 0h-1.37a.11.11 0 0 1-.13-.13v-.56a.16.16 0 0 1 0-.09.13.13 0 0 1 .1 0l1.4.03z"/><path d="m74.27 7.86.58-.6.61.61-.6.59-.59-.6zm-1.15 4.91V12h1.34c.153.012.307.012.46 0a1.64 1.64 0 0 0 .3-.08.62.62 0 0 0 .17-.11.47.47 0 0 0 .09-.12c-.259.03-.521.03-.78 0a1.47 1.47 0 0 1-.59-.2 1 1 0 0 1-.37-.4 1.2 1.2 0 0 1-.13-.59 1.27 1.27 0 0 1 .1-.52A1.34 1.34 0 0 1 74 9.5a1.26 1.26 0 0 1 .43-.29 1.23 1.23 0 0 1 .54-.09 1.64 1.64 0 0 1 .47.09 1.38 1.38 0 0 1 .35.22 1.23 1.23 0 0 1 .24.31 1.8 1.8 0 0 1 .16.38c.04.141.07.285.09.43a3.38 3.38 0 0 1 0 .45v.25a2 2 0 0 1-.18.75 1.34 1.34 0 0 1-.41.47 1.81 1.81 0 0 1-.57.24 3.63 3.63 0 0 1-.67.06h-1.33zm1.65-2.84a.86.86 0 0 1 .23 0 .59.59 0 0 1 .31.06.6.6 0 0 1 .16.23 1.47 1.47 0 0 1 .08.3v.3a1.56 1.56 0 0 1-.86 0 .42.42 0 0 1-.3-.41.4.4 0 0 1 .05-.22.42.42 0 0 1 .13-.16.47.47 0 0 1 .2-.1z" class="B"/><path d="M78.66 12.77a3.775 3.775 0 0 1-.62 0 1.538 1.538 0 0 1-.43-.13.78.78 0 0 1-.28-.22 1.09 1.09 0 0 1-.17-.32 2.264 2.264 0 0 1-.07-.4V8.06h.82v3.09c-.012.14-.012.28 0 .42a.44.44 0 0 0 .09.25.45.45 0 0 0 .23.11 2.47 2.47 0 0 0 .43 0v.84z"/><path d="M81 10a.29.29 0 0 1 0 .1v1.34a1.5 1.5 0 0 1-.11.58 1.38 1.38 0 0 1-.29.41 1.27 1.27 0 0 1-.41.23 1.19 1.19 0 0 1-.45.08h-1.22V12h1.55a.47.47 0 0 0 .15-.06 1 1 0 0 0 .13-.15.68.68 0 0 0 .05-.27 1.2 1.2 0 0 0 0-.18v-.22a2 2 0 0 0 0-.24V10.31L81 10zm-1.76 4.52-.6-.52.54-.56.56.56-.5.52zM80 14l.61.52.49-.52-.56-.56L80 14z" class="B"/><path d="M83.85 12.57a2.66 2.66 0 0 1-.17.82 1.85 1.85 0 0 1-.4.61 1.76 1.76 0 0 1-.63.39 2.37 2.37 0 0 1-.83.14h-.4v-.82h.4a2.26 2.26 0 0 0 .55-.06.75.75 0 0 0 .37-.21.91.91 0 0 0 .22-.37 1.93 1.93 0 0 0 .04-.57v-2h.82l.03 2.07zm1.82.21h-.49l-.26-.06-.27-.08-.39-.12.23-.78a5.72 5.72 0 0 0 .59.17 3.36 3.36 0 0 0 .58.1 1.43 1.43 0 0 0 .47 0 .33.33 0 0 0 .26-.19.14.14 0 0 0 0-.11.514.514 0 0 0-.07-.15L85.1 9.79l.68-.45.23.34v.07l.1.15.17.25.26.39.46.46c.105.157.177.334.21.52a1 1 0 0 1-.22.75.85.85 0 0 1-.22.2 1.49 1.49 0 0 1-.56.22 3.09 3.09 0 0 1-.54.09zM38.73 28.51l-1.32-2.64a1.41 1.41 0 0 0-1.26-.78H22.3a.57.57 0 0 0-.51.82l.89 1.73a2.78 2.78 0 0 0 2.48 1.5h13.17a.44.44 0 0 0 .4-.63zm-7.31 2.01h-2.07a.37.37 0 0 0-.37.36v2a.37.37 0 0 0 .37.36h2.07a.37.37 0 0 0 .37-.36v-2a.37.37 0 0 0-.37-.36zm55.09-5.43H71.43a.25.25 0 0 1-.24-.34 6.16 6.16 0 0 0 .35-2.07v-2.07a.47.47 0 0 0-.47-.47h-3.2a.47.47 0 0 0-.47.47v2.1a2.4 2.4 0 0 1-2.4 2.38h-1.39a.25.25 0 0 1-.24-.33 6.16 6.16 0 0 0 .34-2v-2.1a.47.47 0 0 0-.48-.47H60a.48.48 0 0 0-.48.47v2.07a2.39 2.39 0 0 1-2.42 2.38h-9.28a1.41 1.41 0 0 0-1.26.78l-1.32 2.64a.44.44 0 0 0 .4.63h11.48a6.64 6.64 0 0 0 5.1-2.36l.92 1.84a.89.89 0 0 0 .8.49h1a6.61 6.61 0 0 0 5.3-2.62l.94 2.12a.89.89 0 0 0 .81.53h11.66a2.81 2.81 0 0 0 2.49-1.51l.86-1.74a.56.56 0 0 0-.49-.82zm-17.13 5.43H63.8a.37.37 0 0 0-.37.36v2a.37.37 0 0 0 .37.36h5.58a.37.37 0 0 0 .37-.36v-2a.37.37 0 0 0-.37-.36zm-30.71 0h-5.58a.37.37 0 0 0-.37.36v2a.37.37 0 0 0 .37.36h5.58a.37.37 0 0 0 .37-.36v-2a.37.37 0 0 0-.37-.36zm16.9 0h-2.06a.36.36 0 0 0-.37.36v2a.36.36 0 0 0 .37.36h2.06a.36.36 0 0 0 .37-.36v-2a.36.36 0 0 0-.37-.36zM43.71 16.25h-3.43a.36.36 0 0 0-.36.35v12.15a.4.4 0 0 0 .4.39h3.35a.39.39 0 0 0 .39-.39V16.6a.35.35 0 0 0-.35-.35zM107 17.83a7 7 0 0 1 1.55 8.39c3.73-6.23 2.32-11.13 2.32-11.13-8.1-4.06-12.65-.6-12.65-.6a13.1 13.1 0 0 1 8.78 3.34z"/><path d="M97.83 19.17a6.9 6.9 0 0 1 8.35-1.56c-6.2-3.75-11.07-2.34-11.07-2.34-4 8.15-.6 12.72-.6 12.72a13.23 13.23 0 0 1 3.32-8.82zm1.44 9.08a7 7 0 0 1-1.56-8.38C94 26.09 95.4 31 95.4 31c8.1 4.06 12.64.6 12.64.6a13.08 13.08 0 0 1-8.77-3.35zm12.53-10.18a13.21 13.21 0 0 1-3.33 8.82 6.89 6.89 0 0 1-8.34 1.56c6.19 3.75 11.07 2.33 11.07 2.33 4.04-8.14.6-12.71.6-12.71zm-2.88-11.88c-5.79.11-6.17 5.17-6.17 5.17 5.82.49 6.17-5.17 6.17-5.17z"/></g><path d="M4 1h127v-2H4v2zm130 3v32h2V4h-2zm-3 35H4v2h127v-2zM1 36V4h-2v32h2zm3 3a3 3 0 0 1-3-3h-2a5 5 0 0 0 5 5v-2zm130-3a3 3 0 0 1-3 3v2a5 5 0 0 0 5-5h-2zm-3-35a3 3 0 0 1 3 3h2a5 5 0 0 0-5-5v2zM4-1a5 5 0 0 0-5 5h2a3 3 0 0 1 3-3v-2z" fill="#e0e0e0"/></svg>